# Created by Open3D 
# object name: cloth_z_up_textured
# number of vertices: 25
# number of triangles: 32
mtllib cloth_z_up_textured.mtl
v 1 -0.5 -0
vn 0 0 -1
v 0.5 -1 -0
vn 0 0 -1
v 0.5 -0.5 -0
vn 0 0 -1
v 0 -0.5 -0
vn 0 0 -1
v -0.5 -1 -0
vn 0 0 -1
v -0.5 -0.5 -0
vn 0 0 -1
v -0 0.5 0
vn 0 0 -1
v -0.5 0 -0
vn 0 0 -1
v -0.5 0.5 0
vn 0 0 -1
v 1 0.5 0
vn 0 0 -1
v 0.5 0 0
vn 0 0 -1
v 0.5 0.5 0
vn 0 0 -1
v 0 0 0
vn 0 0 -1
v 0.5 1 0
vn 0 0 -1
v -0 1 0
vn 0 0 -1
v 1 1 0
vn 0 0 -1
v -1 0 -0
vn 0 0 -1
v -1 0.5 0
vn 0 0 -1
v -0.5 1 0
vn 0 0 -1
v -1 1 0
vn 0 0 -1
v -1 -1 -0
vn 0 0 -1
v -1 -0.5 -0
vn 0 0 -1
v 0 -1 -0
vn 0 0 -1
v 1 0 0
vn 0 0 -1
v 1 -1 -0
vn 0 0 -1
vt 0.976031 1.08498
vt 0.738016 1.66997
vt 0.738016 1.08498
vt 0.499998 1.08498
vt 0.261984 1.66997
vt 0.261984 1.08498
vt 0.499998 -0.084982
vt 0.261984 0.5
vt 0.261984 -0.084982
vt 0.976031 -0.084982
vt 0.738016 0.5
vt 0.738016 -0.084982
vt 0.738016 -0.084982
vt 0.499998 0.5
vt 0.499998 -0.084982
vt 0.738016 -0.669965
vt 0.499998 -0.084982
vt 0.499998 -0.669965
vt 0.976031 -0.669965
vt 0.738016 -0.084982
vt 0.738016 -0.669965
vt 0.261984 -0.084982
vt 0.023969 0.5
vt 0.023969 -0.084982
vt 0.261984 -0.669965
vt 0.023969 -0.084982
vt 0.023969 -0.669965
vt 0.499998 -0.669965
vt 0.261984 -0.084982
vt 0.261984 -0.669965
vt 0.261984 1.08498
vt 0.023969 1.66997
vt 0.023969 1.08498
vt 0.261984 0.5
vt 0.023969 1.08498
vt 0.023969 0.5
vt 0.499998 0.5
vt 0.261984 1.08498
vt 0.261984 0.5
vt 0.738016 1.08498
vt 0.499998 1.66997
vt 0.499998 1.08498
vt 0.738016 0.5
vt 0.499998 1.08498
vt 0.499998 0.5
vt 0.976031 0.5
vt 0.738016 1.08498
vt 0.738016 0.5
vt 0.976031 1.08498
vt 0.976031 1.66997
vt 0.738016 1.66997
vt 0.499998 1.08498
vt 0.499998 1.66997
vt 0.261984 1.66997
vt 0.499998 -0.084982
vt 0.499998 0.5
vt 0.261984 0.5
vt 0.976031 -0.084982
vt 0.976031 0.5
vt 0.738016 0.5
vt 0.738016 -0.084982
vt 0.738016 0.5
vt 0.499998 0.5
vt 0.738016 -0.669965
vt 0.738016 -0.084982
vt 0.499998 -0.084982
vt 0.976031 -0.669965
vt 0.976031 -0.084982
vt 0.738016 -0.084982
vt 0.261984 -0.084982
vt 0.261984 0.5
vt 0.023969 0.5
vt 0.261984 -0.669965
vt 0.261984 -0.084982
vt 0.023969 -0.084982
vt 0.499998 -0.669965
vt 0.499998 -0.084982
vt 0.261984 -0.084982
vt 0.261984 1.08498
vt 0.261984 1.66997
vt 0.023969 1.66997
vt 0.261984 0.5
vt 0.261984 1.08498
vt 0.023969 1.08498
vt 0.499998 0.5
vt 0.499998 1.08498
vt 0.261984 1.08498
vt 0.738016 1.08498
vt 0.738016 1.66997
vt 0.499998 1.66997
vt 0.738016 0.5
vt 0.738016 1.08498
vt 0.499998 1.08498
vt 0.976031 0.5
vt 0.976031 1.08498
vt 0.738016 1.08498
usemtl cloth_z_up_textured_1
f 1/1/1 2/2/2 3/3/3
f 4/4/4 5/5/5 6/6/6
f 7/7/7 8/8/8 9/9/9
f 10/10/10 11/11/11 12/12/12
f 12/13/12 13/14/13 7/15/7
f 14/16/14 7/17/7 15/18/15
f 16/19/16 12/20/12 14/21/14
f 9/22/9 17/23/17 18/24/18
f 19/25/19 18/26/18 20/27/20
f 15/28/15 9/29/9 19/30/19
f 6/31/6 21/32/21 22/33/22
f 8/34/8 22/35/22 17/36/17
f 13/37/13 6/38/6 8/39/8
f 3/40/3 23/41/23 4/42/4
f 11/43/11 4/44/4 13/45/13
f 24/46/24 3/47/3 11/48/11
f 1/49/1 25/50/25 2/51/2
f 4/52/4 23/53/23 5/54/5
f 7/55/7 13/56/13 8/57/8
f 10/58/10 24/59/24 11/60/11
f 12/61/12 11/62/11 13/63/13
f 14/64/14 12/65/12 7/66/7
f 16/67/16 10/68/10 12/69/12
f 9/70/9 8/71/8 17/72/17
f 19/73/19 9/74/9 18/75/18
f 15/76/15 7/77/7 9/78/9
f 6/79/6 5/80/5 21/81/21
f 8/82/8 6/83/6 22/84/22
f 13/85/13 4/86/4 6/87/6
f 3/88/3 2/89/2 23/90/23
f 11/91/11 3/92/3 4/93/4
f 24/94/24 1/95/1 3/96/3
